<svg xmlns="http://www.w3.org/2000/svg" width="264.11" height="35" viewBox="0 0 264.11 35"><rect class="svg__rect" x="0" y="0" width="200.2" height="35" fill="#F92E9A"/><rect class="svg__rect" x="198.2" y="0" width="65.91000000000003" height="35" fill="#AC1F67"/><path class="svg__text" d="M15.70 22L14.22 22L14.22 13.47L17.48 13.47Q18.91 13.47 19.75 14.21Q20.59 14.96 20.59 16.18L20.59 16.18Q20.59 17.44 19.77 18.13Q18.95 18.83 17.46 18.83L17.46 18.83L15.70 18.83L15.70 22ZM15.70 14.66L15.70 17.64L17.48 17.64Q18.27 17.64 18.69 17.27Q19.10 16.90 19.10 16.19L19.10 16.19Q19.10 15.50 18.68 15.09Q18.26 14.68 17.52 14.66L17.52 14.66L15.70 14.66ZM26.36 22L24.88 22L24.88 13.47L27.88 13.47Q29.35 13.47 30.15 14.13Q30.96 14.79 30.96 16.05L30.96 16.05Q30.96 16.90 30.54 17.48Q30.13 18.06 29.39 18.37L29.39 18.37L31.31 21.92L31.31 22L29.72 22L28.01 18.71L26.36 18.71L26.36 22ZM26.36 14.66L26.36 17.52L27.88 17.52Q28.63 17.52 29.05 17.15Q29.48 16.77 29.48 16.11L29.48 16.11Q29.48 15.43 29.09 15.05Q28.70 14.68 27.92 14.66L27.92 14.66L26.36 14.66ZM40.93 22L35.35 22L35.35 13.47L40.89 13.47L40.89 14.66L36.83 14.66L36.83 17.02L40.34 17.02L40.34 18.19L36.83 18.19L36.83 20.82L40.93 20.82L40.93 22ZM44.69 19.42L44.69 19.42L46.17 19.42Q46.17 20.15 46.65 20.55Q47.14 20.95 48.03 20.95L48.03 20.95Q48.81 20.95 49.19 20.63Q49.58 20.32 49.58 19.80L49.58 19.80Q49.58 19.24 49.19 18.94Q48.79 18.63 47.76 18.32Q46.73 18.01 46.12 17.63L46.12 17.63Q44.96 16.90 44.96 15.72L44.96 15.72Q44.96 14.69 45.80 14.02Q46.64 13.35 47.98 13.35L47.98 13.35Q48.87 13.35 49.57 13.68Q50.26 14.01 50.66 14.61Q51.06 15.22 51.06 15.96L51.06 15.96L49.58 15.96Q49.58 15.29 49.17 14.91Q48.75 14.54 47.97 14.54L47.97 14.54Q47.24 14.54 46.84 14.85Q46.44 15.16 46.44 15.71L46.44 15.71Q46.44 16.18 46.87 16.50Q47.31 16.81 48.30 17.10Q49.30 17.40 49.90 17.78Q50.50 18.16 50.79 18.65Q51.07 19.13 51.07 19.79L51.07 19.79Q51.07 20.86 50.25 21.49Q49.43 22.12 48.03 22.12L48.03 22.12Q47.11 22.12 46.33 21.77Q45.55 21.43 45.12 20.83Q44.69 20.22 44.69 19.42ZM60.93 22L55.36 22L55.36 13.47L60.89 13.47L60.89 14.66L56.84 14.66L56.84 17.02L60.34 17.02L60.34 18.19L56.84 18.19L56.84 20.82L60.93 20.82L60.93 22ZM66.61 22L65.13 22L65.13 13.47L66.61 13.47L70.43 19.54L70.43 13.47L71.90 13.47L71.90 22L70.41 22L66.61 15.95L66.61 22ZM78.32 14.66L75.68 14.66L75.68 13.47L82.45 13.47L82.45 14.66L79.79 14.66L79.79 22L78.32 22L78.32 14.66ZM86.98 22L85.44 22L88.67 13.47L90.00 13.47L93.22 22L91.68 22L90.98 20.01L87.68 20.01L86.98 22ZM89.33 15.28L88.09 18.82L90.56 18.82L89.33 15.28ZM98.86 14.66L96.22 14.66L96.22 13.47L102.99 13.47L102.99 14.66L100.33 14.66L100.33 22L98.86 22L98.86 14.66ZM108.31 22L106.84 22L106.84 13.47L108.31 13.47L108.31 22ZM112.85 18.00L112.85 18.00L112.85 17.52Q112.85 16.28 113.30 15.32Q113.74 14.37 114.54 13.86Q115.35 13.35 116.39 13.35Q117.44 13.35 118.24 13.85Q119.05 14.35 119.49 15.29Q119.93 16.23 119.93 17.48L119.93 17.48L119.93 17.96Q119.93 19.21 119.50 20.16Q119.06 21.10 118.26 21.61Q117.45 22.12 116.40 22.12L116.40 22.12Q115.37 22.12 114.56 21.61Q113.74 21.10 113.30 20.17Q112.86 19.23 112.85 18.00ZM114.34 17.46L114.34 17.96Q114.34 19.36 114.88 20.13Q115.43 20.90 116.40 20.90L116.40 20.90Q117.39 20.90 117.92 20.15Q118.45 19.40 118.45 17.96L118.45 17.96L118.45 17.51Q118.45 16.09 117.91 15.34Q117.38 14.58 116.39 14.58L116.39 14.58Q115.43 14.58 114.89 15.33Q114.35 16.09 114.34 17.46L114.34 17.46ZM125.88 22L124.40 22L124.40 13.47L125.88 13.47L129.69 19.54L129.69 13.47L131.16 13.47L131.16 22L129.68 22L125.88 15.95L125.88 22ZM144.18 22L141.12 13.47L142.74 13.47L144.89 20.14L147.06 13.47L148.68 13.47L145.61 22L144.18 22ZM154.20 22L152.72 22L152.72 13.47L154.20 13.47L154.20 22ZM161.46 22L159.01 22L159.01 13.47L161.53 13.47Q162.66 13.47 163.53 13.97Q164.41 14.48 164.89 15.40Q165.37 16.33 165.37 17.52L165.37 17.52L165.37 17.95Q165.37 19.16 164.89 20.08Q164.40 21.00 163.51 21.50Q162.62 22 161.46 22L161.46 22ZM160.49 14.66L160.49 20.82L161.46 20.82Q162.62 20.82 163.25 20.09Q163.87 19.36 163.88 17.99L163.88 17.99L163.88 17.52Q163.88 16.13 163.28 15.40Q162.68 14.66 161.53 14.66L161.53 14.66L160.49 14.66ZM175.41 22L169.84 22L169.84 13.47L175.37 13.47L175.37 14.66L171.32 14.66L171.32 17.02L174.82 17.02L174.82 18.19L171.32 18.19L171.32 20.82L175.41 20.82L175.41 22ZM179.34 18.00L179.34 18.00L179.34 17.52Q179.34 16.28 179.78 15.32Q180.22 14.37 181.03 13.86Q181.84 13.35 182.88 13.35Q183.92 13.35 184.73 13.85Q185.53 14.35 185.97 15.29Q186.41 16.23 186.42 17.48L186.42 17.48L186.42 17.96Q186.42 19.21 185.98 20.16Q185.55 21.10 184.75 21.61Q183.94 22.12 182.89 22.12L182.89 22.12Q181.85 22.12 181.04 21.61Q180.23 21.10 179.79 20.17Q179.35 19.23 179.34 18.00ZM180.82 17.46L180.82 17.96Q180.82 19.36 181.37 20.13Q181.92 20.90 182.89 20.90L182.89 20.90Q183.88 20.90 184.41 20.15Q184.94 19.40 184.94 17.96L184.94 17.96L184.94 17.51Q184.94 16.09 184.40 15.34Q183.86 14.58 182.88 14.58L182.88 14.58Q181.92 14.58 181.38 15.33Q180.83 16.09 180.82 17.46L180.82 17.46Z" fill="#FFFFFF"/><path class="svg__text" d="M218.77 22L212.39 22L212.39 13.60L214.77 13.60L214.77 20.11L218.77 20.11L218.77 22ZM225.57 22L223.19 22L223.19 13.60L225.57 13.60L225.57 22ZM233.08 22L230.75 22L230.75 13.60L232.70 13.60L236.41 18.07L236.41 13.60L238.74 13.60L238.74 22L236.79 22L233.08 17.52L233.08 22ZM246.26 22L243.90 22L243.90 13.60L246.26 13.60L246.26 17.09L249.51 13.60L252.12 13.60L248.69 17.32L252.30 22L249.54 22L247.14 18.95L246.26 19.90L246.26 22Z" fill="#FFFFFF" x="211.2"/></svg>